<svg id="Layer_1" data-name="Layer 1" xmlns="http://www.w3.org/2000/svg" viewBox="0 0 2000 2000"><defs><style>.cls-1{fill:#131a1d;stroke:#fff;stroke-miterlimit:10;stroke-width:6px;}.cls-2{font-size:113.82px;fill:#eb731a;font-family:CeraPro-Black, Cera Pro;font-weight:800;}.cls-3{letter-spacing:-0.08em;}.cls-4{letter-spacing:-0.07em;}.cls-5{letter-spacing:-0.01em;}.cls-6{letter-spacing:-0.05em;}.cls-7{font-size:74.48px;font-family:CeraPro-Light, Cera Pro;font-weight:300;}.cls-10,.cls-7{fill:#fff;}.cls-8{letter-spacing:-0.01em;}.cls-9{letter-spacing:0em;}.cls-11{fill:#e88422;}</style></defs><circle class="cls-1" cx="1000" cy="1000" r="450.5"/><text class="cls-2" transform="translate(698.29 1210.83)"><tspan class="cls-3">P</tspan><tspan class="cls-4" x="59.98" y="0">AT</tspan><tspan class="cls-5" x="184.84" y="0">A</tspan><tspan x="258.14" y="0">GONI</tspan><tspan class="cls-6" x="547.69" y="0">A</tspan></text><text class="cls-7" transform="translate(840.92 1295.41)">EXP<tspan class="cls-8" x="127.74" y="0">L</tspan><tspan class="cls-9" x="163.78" y="0">ORE</tspan></text><polygon class="cls-10" points="619.02 1130.86 786 944.11 867.78 999.32 867.78 982.28 925.71 935.25 940.02 877.32 999.32 850.06 1010.9 786.68 1135.63 959.11 1145.17 919.58 1203.1 977.51 1218.78 918.22 1380.3 1150.62 1229.34 994.21 1226.61 1035.1 1163.23 982.62 1174.13 1064.41 1041.23 874.94 1050.09 923.33 986.03 902.2 1024.19 1014.65 963.54 994.21 999.66 1078.72 904.24 1024.88 884.48 1053.5 796.56 991.48 619.02 1130.86"/><path class="cls-11" d="M854.83,963.88c-3.45-9.85-31.42-94.19,19.24-167.3,7.8-11.26,39.93-56.1,100-68.52,78.64-16.23,137.92,36.93,146.83,45.2,64.15,59.49,57.27,143.11,56.27,153.13-27.6-24.87-34.42-26.24-34.42-26.24l-9.54,31.35L1009.88,773.39l-20.44,63.38-58.62,31.35-11.58,51.12Z"/></svg>